<?xml version="1.0" encoding="iso-8859-1"?>
<!-- Generator: Adobe Illustrator 19.0.0, SVG Export Plug-In . SVG Version: 6.00 Build 0)  -->
<svg version="1.1" id="Layer_1" xmlns="http://www.w3.org/2000/svg" xmlns:xlink="http://www.w3.org/1999/xlink" x="0px" y="0px"
	 viewBox="0 0 512 512" style="enable-background:new 0 0 512 512;" xml:space="preserve">
<g>
	<g>
		<path d="M256,144.925c-80.086,0-145.241,65.155-145.241,145.24c0,80.087,65.155,145.242,145.241,145.242
			s145.241-65.155,145.241-145.242C401.241,210.08,336.086,144.925,256,144.925z M256,414.509
			c-68.563,0-124.343-55.781-124.343-124.344c0-68.562,55.78-124.342,124.343-124.342s124.343,55.78,124.343,124.342
			C380.343,358.729,324.563,414.509,256,414.509z"/>
	</g>
</g>
<g>
	<g>
		<path d="M256,202.395c-48.398,0-87.771,39.374-87.771,87.77c0,48.398,39.374,87.772,87.771,87.772s87.771-39.375,87.771-87.772
			C343.771,241.768,304.398,202.395,256,202.395z M256,357.04c-36.874,0-66.873-30-66.873-66.875
			c0-36.873,29.999-66.872,66.873-66.872s66.873,29.999,66.873,66.872C322.873,327.039,292.874,357.04,256,357.04z"/>
	</g>
</g>
<g>
	<g>
		<path d="M293.396,252.769c-4.08-4.079-10.697-4.079-14.778,0c-4.08,4.08-4.08,10.697,0,14.778
			c12.472,12.471,12.472,32.765,0.001,45.238c-12.473,12.472-32.767,12.473-45.239,0c-4.08-4.08-10.697-4.08-14.777,0
			s-4.08,10.697,0,14.778c10.31,10.31,23.853,15.464,37.396,15.464c13.543,0,27.086-5.156,37.397-15.466
			C314.015,306.941,314.015,273.389,293.396,252.769z"/>
	</g>
</g>
<g>
	<g>
		<path d="M434.767,171.173c-9.219,0-16.718,7.499-16.718,16.718c0,9.218,7.499,16.718,16.718,16.718s16.718-7.5,16.718-16.718
			S443.985,171.173,434.767,171.173z"/>
	</g>
</g>
<g>
	<g>
		<path d="M470.204,113.263h-80.115l-29.897-62.398c-1.738-3.627-5.402-5.934-9.423-5.934H165.41c-4.022,0-7.685,2.307-9.423,5.934
			l-29.898,62.398h-10.106V87.707c0-5.771-4.678-10.449-10.449-10.449H55.38c-5.771,0-10.449,4.678-10.449,10.449v25.557h-3.135
			C18.75,113.264,0,131.971,0,154.964V425.37c0,22.993,18.75,41.7,41.796,41.7h428.408c23.046,0,41.796-18.707,41.796-41.7V154.964
			C512,131.97,493.25,113.263,470.204,113.263z M65.829,98.156h29.257v15.108H65.829V98.156z M491.102,425.37
			c0,11.471-9.375,20.802-20.898,20.802H41.796c-11.523,0-20.898-9.332-20.898-20.802V154.964c0-11.471,9.375-20.802,20.898-20.802
			h90.874c4.022,0,7.685-2.307,9.423-5.934l29.898-62.399h172.198l29.897,62.398c1.738,3.627,5.402,5.934,9.423,5.934h86.696
			c11.523,0,20.898,9.332,20.898,20.802V425.37z"/>
	</g>
</g>
<g>
	<g>
		<path d="M298.438,113.263h-4.678c-5.771,0-10.449,4.678-10.449,10.449c0,5.771,4.678,10.449,10.449,10.449h4.678
			c5.771,0,10.449-4.678,10.449-10.449C308.886,117.941,304.208,113.263,298.438,113.263z"/>
	</g>
</g>
<g>
	<g>
		<path d="M259.955,113.263h-87.157c-5.771,0-10.449,4.678-10.449,10.449c0,5.771,4.678,10.449,10.449,10.449h87.157
			c5.771,0,10.449-4.678,10.449-10.449C270.404,117.941,265.726,113.263,259.955,113.263z"/>
	</g>
</g>
<g>
</g>
<g>
</g>
<g>
</g>
<g>
</g>
<g>
</g>
<g>
</g>
<g>
</g>
<g>
</g>
<g>
</g>
<g>
</g>
<g>
</g>
<g>
</g>
<g>
</g>
<g>
</g>
<g>
</g>
</svg>
