<?xml version="1.0" encoding="iso-8859-1"?>
<!-- Generator: Adobe Illustrator 19.0.0, SVG Export Plug-In . SVG Version: 6.00 Build 0)  -->
<svg version="1.1" id="Capa_1" xmlns="http://www.w3.org/2000/svg" xmlns:xlink="http://www.w3.org/1999/xlink" x="0px" y="0px"
	 viewBox="0 0 60 60" style="enable-background:new 0 0 60 60;" xml:space="preserve">
<g>
	<g>
		<path d="M57,0H3C1.3,0,0,1.3,0,3v37v9c0,0.6,0.4,1,1,1h17v-2H2v-7h16v-2H2V3c0-0.6,0.4-1,1-1h54c0.6,0,1,0.4,1,1v36H43v2h15v7H43
			v2h16c0.6,0,1-0.4,1-1v-9V3C60,1.3,58.7,0,57,0z"/>
		<path d="M46.3,26H51v-2h-4.8C45.7,15.9,39.1,9.4,31,9V5h-2v4.1c-7.9,0.6-14.2,7-14.6,14.9H8v2h6.3c0.4,7.2,5.6,13.2,12.7,14.6V46
			h-2c-0.6,0-1,0.4-1,1v13h2v-3h5v-2h-5v-3h5v-2h-5v-2h2h5h2v12h2V47c0-0.6-0.4-1-1-1h-2v-5.4C40.9,39,45.8,33.1,46.3,26z M44.2,24
			h-2c-0.5-5.9-5.3-10.6-11.2-11v-2C38,11.4,43.7,17,44.2,24z M29,24h-8.7c0.5-4.6,4.1-8.3,8.7-8.9V24z M24,26v3h2v-3h3v7h2v-7h4v3
			h2v-3h3.2c-0.5,5-4.8,9-9.9,9s-9.4-4-9.9-9H24z M31,24v-9c4.8,0.3,8.8,4.2,9.2,9H31z M29,11.1v2c-5.8,0.6-10.2,5.2-10.7,10.9h-2
			C16.8,17.2,22.2,11.7,29,11.1z M29,46v-6.2c0-0.5-0.3-0.9-0.8-1c-6.6-1-11.4-6.3-11.9-12.8h2c0.5,6.1,5.7,11,11.9,11
			c6.3,0,11.4-4.9,11.9-11h2c-0.4,6.4-5.1,11.7-11.5,12.8c-0.5,0.1-0.8,0.5-0.8,1V46H29z"/>
		<rect x="43" y="5" width="4" height="2"/>
		<rect x="43" y="9" width="4" height="2"/>
		<rect x="50" y="5" width="4" height="2"/>
		<rect x="50" y="9" width="4" height="2"/>
		<rect x="50" y="13" width="4" height="2"/>
		<rect x="50" y="17" width="4" height="2"/>
		<rect x="13" y="5" width="4" height="2"/>
		<rect x="13" y="9" width="4" height="2"/>
		<rect x="6" y="5" width="4" height="2"/>
		<rect x="6" y="9" width="4" height="2"/>
		<rect x="6" y="13" width="4" height="2"/>
		<rect x="6" y="17" width="4" height="2"/>
	</g>
</g>
<g>
</g>
<g>
</g>
<g>
</g>
<g>
</g>
<g>
</g>
<g>
</g>
<g>
</g>
<g>
</g>
<g>
</g>
<g>
</g>
<g>
</g>
<g>
</g>
<g>
</g>
<g>
</g>
<g>
</g>
</svg>
